Coordinates
version=1
nRows=10
nColumns=60
inDegrees=yes

Units are S.I. units (second, meters, Newtons, ...)
If the header above contains a line with 'inDegrees', this indicates whether rotational values are in degrees (yes) or radians (no).

endheader
time	pelvis_tilt	pelvis_list	pelvis_rotation	pelvis_tx	pelvis_ty	pelvis_tz	hip_flexion_r	hip_adduction_r	hip_rotation_r	knee_angle_r_beta	knee_angle_r	ankle_angle_r	subtalar_angle_r	mtp_angle_r	hip_flexion_l	hip_adduction_l	hip_rotation_l	knee_angle_l_beta	knee_angle_l	ankle_angle_l	subtalar_angle_l	mtp_angle_l	L5_S1_Flex_Ext	L5_S1_Lat_Bending	L5_S1_axial_rotation	L4_L5_Flex_Ext	L4_L5_Lat_Bending	L4_L5_axial_rotation	L3_L4_Flex_Ext	L3_L4_Lat_Bending	L3_L4_axial_rotation	L2_L3_Flex_Ext	L2_L3_Lat_Bending	L2_L3_axial_rotation	L1_L2_Flex_Ext	L1_L2_Lat_Bending	L1_L2_axial_rotation	L1_T12_Flex_Ext	L1_T12_Lat_Bending	L1_T12_axial_rotation	Abs_r3	Abs_r2	Abs_r1	Abs_t1	Abs_t2	arm_flex_r	arm_add_r	arm_rot_r	elbow_flex_r	pro_sup_r	wrist_flex_r	wrist_dev_r	arm_flex_l	arm_add_l	arm_rot_l	elbow_flex_l	pro_sup_l	wrist_flex_l	wrist_dev_l
     33.33000000	      0.26981593	     -1.61736974	     92.33301568	      0.40410283	      0.90821452	      0.39436387	     24.43891356	     -4.84734108	      3.04043522	      0.41516010	    -23.78692145	      3.97833163	      0.00000000	      0.00000000	     24.04008205	     -5.18829970	      1.83815092	      0.36437786	    -20.87731330	      3.41008887	      0.00000000	      0.00000000	    -10.54284075	      0.27592746	      0.28927062	    -19.57910956	      0.36698352	      0.30735003	    -17.32083307	      0.67089002	      0.30735003	    -12.04941269	      0.67089002	      0.25311179	     -9.79008192	      0.56267127	      0.23503238	     -6.02417920	      0.42741163	      0.21695297	    -75.30645720	      3.12134657	      1.60883641	      0.00000000	      0.00000000	     55.57476487	    -25.44524989	     18.50862560	     59.04695377	     70.57408182	      7.28953163	      4.35635195	     62.20483366	    -21.66973130	     29.47565875	     53.86712449	     60.46599076	     10.72494530	     11.20258924
     33.34000000	      0.25728927	     -2.12904386	     92.51309725	      0.40429454	      0.90632631	      0.39628795	     25.47641569	     -4.95511303	      2.75698854	      0.42722441	    -24.47815557	      4.16838302	      0.00000000	      0.00000000	     25.06976105	     -5.11976961	      1.90828865	      0.37405756	    -21.43191922	      3.48260716	      0.00000000	      0.00000000	    -10.56787052	      0.28544880	      0.28442378	    -19.62559234	      0.37964691	      0.30220027	    -17.36195448	      0.69404022	      0.30220027	    -12.07801922	      0.69404022	      0.24887081	     -9.81332457	      0.58208720	      0.23109432	     -6.03848122	      0.44216020	      0.21331784	    -75.48524234	      3.22905395	      1.58187975	      0.00000000	      0.00000000	     57.06366863	    -25.20369287	     18.93261519	     57.69148275	     70.61032907	      7.39047735	      4.04598548	     63.72502365	    -21.35709302	     30.18264118	     52.61944978	     60.53224906	     10.62692719	     11.03848203
     33.35000000	      0.21621015	     -2.46666117	     92.70251909	      0.40445654	      0.90474012	      0.39807146	     26.29806571	     -5.07318886	      2.58855523	      0.43880413	    -25.14162456	      4.27898765	      0.00000000	      0.00000000	     25.86230112	     -5.02019959	      2.00812054	      0.38251540	    -21.91651801	      3.45268595	      0.00000000	      0.00000000	    -10.63318795	      0.29567136	      0.28021919	    -19.74689334	      0.39324291	      0.29773289	    -17.46926449	      0.71889534	      0.29773289	    -12.15267051	      0.71889534	      0.24519179	     -9.87397833	      0.60293303	      0.22767809	     -6.07580360	      0.45799493	      0.21016439	    -75.95179822	      3.34469353	      1.55849508	      0.00000000	      0.00000000	     58.43476889	    -25.05238735	     19.13507374	     56.78826624	     70.66580075	      7.53004048	      3.53890030	     65.18853483	    -21.09992574	     30.72473919	     51.78049036	     60.54572928	     10.49195497	     10.73042260
     33.36000000	      0.15573183	     -2.65417992	     92.89715917	      0.40455985	      0.90337863	      0.39970807	     26.93706024	     -5.19931418	      2.53313626	      0.45015935	    -25.79223099	      4.28922543	      0.00000000	      0.00000000	     26.47218309	     -4.90139372	      2.13210468	      0.39072446	    -22.38686232	      3.34420315	      0.00000000	      0.00000000	    -10.73380609	      0.30819245	      0.27691488	    -19.93375130	      0.40989596	      0.29422206	    -17.63457003	      0.74933913	      0.29422206	    -12.26766698	      0.74933913	      0.24230052	     -9.96741234	      0.62846605	      0.22499334	     -6.13329680	      0.47739011	      0.20768616	    -76.67050355	      3.48633469	      1.54011748	      0.00000000	      0.00000000	     59.67979254	    -24.97921993	     19.02134288	     56.40368256	     70.68104201	      7.54480848	      3.42435903	     66.48658331	    -20.87374335	     30.74655373	     51.47011335	     60.54432415	     10.44432036	     10.64710672
     33.37000000	      0.08391768	     -3.10420226	     93.07727385	      0.40469722	      0.90139831	      0.40145773	     27.95685480	     -5.37779537	      2.25777306	      0.46419314	    -26.59630801	      4.58855882	      0.00000000	      0.00000000	     27.42808211	     -4.75469999	      2.19197091	      0.40075305	    -22.96145826	      3.43740888	      0.00000000	      0.00000000	    -10.75990394	      0.31409056	      0.26785157	    -19.98221761	      0.41774045	      0.28459230	    -17.67744618	      0.76367979	      0.28459230	    -12.29749421	      0.76367979	      0.23437013	     -9.99164680	      0.64049348	      0.21762940	     -6.14820911	      0.48652628	      0.20088868	    -76.85691785	      3.55305526	      1.48971009	      0.00000000	      0.00000000	     61.07198373	    -24.77237361	     19.44366065	     55.16802610	     70.81493617	      7.67625600	      3.02459579	     68.05178310	    -20.51735510	     31.67848953	     50.09038590	     60.48867652	     10.30161925	     10.38612857
     33.38000000	     -0.00274482	     -3.36648015	     93.23619446	      0.40486585	      0.89973692	      0.40299732	     28.74634531	     -5.54959355	      2.03601169	      0.47766582	    -27.36823544	      4.75874645	      0.00000000	      0.00000000	     28.15046814	     -4.62372222	      2.16709106	      0.41020041	    -23.50275232	      3.44911265	      0.00000000	      0.00000000	    -10.83083536	      0.31951435	      0.26121132	    -20.11394434	      0.42495408	      0.27753703	    -17.79397941	      0.77686719	      0.27753703	    -12.37856173	      0.77686719	      0.22855990	    -10.05751371	      0.65155366	      0.21223420	     -6.18873932	      0.49492772	      0.19590849	    -77.36357386	      3.61441021	      1.45277899	      0.00000000	      0.00000000	     62.34867348	    -24.65439366	     19.56699622	     54.51115240	     70.90260541	      7.76346547	      2.75723610	     69.43360063	    -20.22734384	     32.11075181	     49.29436854	     60.39392212	     10.21664849	     10.16275942
     33.39000000	     -0.08550406	     -3.66568975	     93.37876565	      0.40504059	      0.89792984	      0.40454077	     29.57646664	     -5.69571593	      1.96894136	      0.49121912	    -28.14478251	      4.96856938	      0.00000000	      0.00000000	     28.91456455	     -4.49394240	      2.19288525	      0.42000001	    -24.06422806	      3.50775681	      0.00000000	      0.00000000	    -10.88612242	      0.32102137	      0.25495006	    -20.21661795	      0.42695842	      0.27088443	    -17.88481053	      0.78053136	      0.27088443	    -12.44174932	      0.78053136	      0.22308130	    -10.10885328	      0.65462678	      0.20714692	     -6.22033035	      0.49726210	      0.19121254	    -77.75848386	      3.63145796	      1.41795572	      0.00000000	      0.00000000	     63.59862410	    -24.54282979	     19.81222180	     53.69082977	     71.02361087	      7.88446080	      2.46642636	     70.88576150	    -19.90345109	     32.74706245	     48.28600471	     60.24455000	     10.14449184	      9.87137583
     33.40000000	     -0.15225965	     -3.82433925	     93.49077588	      0.40527306	      0.89641463	      0.40592468	     30.18158961	     -5.77408549	      2.09260995	      0.50271781	    -28.80360907	      5.01013800	      0.00000000	      0.00000000	     29.47669083	     -4.38111663	      2.35060929	      0.42873742	    -24.56484484	      3.46232229	      0.00000000	      0.00000000	    -10.97783796	      0.32314163	      0.25318593	    -20.38694288	      0.42977836	      0.26901005	    -18.03548999	      0.78568655	      0.26901005	    -12.54657101	      0.78568655	      0.22153769	    -10.19402033	      0.65895041	      0.20571357	     -6.27273661	      0.50054638	      0.18988945	    -78.41359877	      3.65544272	      1.40814417	      0.00000000	      0.00000000	     64.76146812	    -24.47830289	     19.77791011	     53.38284190	     71.06766556	      7.92466329	      2.35428781	     72.13897664	    -19.68932912	     32.85767291	     47.88792782	     60.18091647	     10.12052085	      9.73282040
     33.41000000	     -0.25061287	     -4.07344567	     93.59598855	      0.40547115	      0.89457880	      0.40734665	     31.01816047	     -5.93496238	      1.97217291	      0.51823756	    -29.69282480	      5.21405045	      0.00000000	      0.00000000	     30.22556664	     -4.25663221	      2.29228425	      0.44039963	    -25.23304000	      3.52967672	      0.00000000	      0.00000000	    -11.03773902	      0.32071771	      0.24174600	    -20.49818514	      0.42655456	      0.25685513	    -18.13390144	      0.77979305	      0.25685513	    -12.61503193	      0.77979305	      0.21152775	    -10.24964446	      0.65400756	      0.19641863	     -6.30696408	      0.49679174	      0.18130950	    -78.84146607	      3.62802293	      1.34451873	      0.00000000	      0.00000000	     65.96661270	    -24.34598752	     19.96628619	     52.71111915	     71.15029321	      7.99376633	      2.24494323	     73.48305500	    -19.38228604	     33.28855510	     46.97855508	     60.10019975	     10.10027763	      9.57343701
     33.42000000	     -0.36296381	     -4.49585211	     93.65400107	      0.40574714	      0.89252386	      0.40873097	     31.93259850	     -6.09477816	      1.93281263	      0.52960568	    -30.34417050	      5.50838695	      0.00000000	      0.00000000	     31.05889272	     -4.14129732	      2.14103214	      0.44874344	    -25.71110495	      3.68797072	      0.00000000	      0.00000000	    -11.05174509	      0.31179229	      0.24428580	    -20.52419581	      0.41468375	      0.25955366	    -18.15691201	      0.75809177	      0.25955366	    -12.63103947	      0.75809177	      0.21375008	    -10.26265049	      0.63580684	      0.19848221	     -6.31496715	      0.48296626	      0.18321435	    -78.94151003	      3.52705674	      1.35864434	      0.00000000	      0.00000000	     67.13849636	    -24.24325329	     20.36554024	     51.41568913	     71.81232543	      9.45427884	     -0.22589914	     75.15821180	    -19.06724139	     35.30787831	     45.17539297	     57.99838850	     10.30467168	      5.94800012
